<svg xmlns="http://www.w3.org/2000/svg" width="38.495" height="46.13" viewBox="0 0 38.495 46.13"><g transform="translate(0.495)"><path d="M879.222,1763.162s-5.4,1.228-5.4,2.714a63.12,63.12,0,0,0,.775,12.31,35.578,35.578,0,0,0,3.263,9.6,55.634,55.634,0,0,0,5.751,9.5,48.643,48.643,0,0,0,5.622,5.96s3.605,3.158,4.071,3.152,4.053-2.686,4.039-3.263-4.391-5.629-4.265-5.848,5.613,3.986,6.171,4.006,3.411-3.168,3.3-3.651-2.948-2.5-5.525-5.686a61.2,61.2,0,0,1-4.782-7.043s-1.258-2.223-1.567-2.893c-.387-.84-.6-1.547-1.309-3.407a51.433,51.433,0,0,1-2.2-7.771,35.067,35.067,0,0,1-.707-6c-.107-2.361-.162-3.357-.162-3.357s-3.925.371-4.269,1.155-.238,1.622-.157,4.215.614,6.042.614,6.042a29.3,29.3,0,0,0,.648,3.224c.452,1.729,1.161,3.69,1.161,3.69s.63,2.019,1.357,3.651a22.027,22.027,0,0,0,1.551,2.875l2.585,4.523a42.272,42.272,0,0,0-3.725-2.68c-.119.119,1.56,4.748,1.56,4.748l-1.971-2.682a58.219,58.219,0,0,1-3.1-5.857,31.238,31.238,0,0,1-1.939-6.194,40.434,40.434,0,0,1-1.013-6.591C879.329,1767.862,879.222,1763.162,879.222,1763.162Z" transform="translate(-873.803 -1760.762)" fill="#fff" stroke="#fff" stroke-width="1"/><path d="M1996.382,1712.75c.368-.6,8.393-.5,8.748,0s.037,7.568-1.019,11.159-2.8,8.97-3.273,8.973-2.393-5.382-3.456-8.973S1996.014,1713.354,1996.382,1712.75Z" transform="translate(-1980.214 -1712.336)" fill="#fff"/><path d="M2429.738,1754.479c.21-.115,4,.349,4.389.853s.166,5.486,0,6.935c.069,1.718-3.543,13.6-3.8,14.306s1.975,3.26,2.249,3.26,2.545-5.12,2.814-5.586,4.607,1.825,4.472,2.327-6.086,11.078-6.866,11.149-8.7-7.982-8.641-10.494c.03-1.369,2.883-7.751,4.311-13.506A45.781,45.781,0,0,0,2429.738,1754.479Z" transform="translate(-2401.863 -1753.85)" fill="#d4a94c"/></g></svg>